<?xml version="1.0" encoding="UTF-8"?>
<svg width="128pt" height="128pt" version="1.1" viewBox="0 0 128 128" xmlns="http://www.w3.org/2000/svg">
 <path d="m55.977 58.715v38.527c0 6.9297-5.043 12.832-11.887 13.914l-22.32 3.5273c-8.4023 1.3281-16.047-5.0352-16.277-13.535-0.53516-19.484 2.7891-54.59 29.547-69.52 8.6523-4.8281 19.148 0.57422 20.734 9.8672l2.0703-2.0703v-20.16c0-3.4023 2.7578-6.1641 6.1641-6.1641 3.4023 0 6.1641 2.7578 6.1641 6.1641v20.16l2.0234 2.0234c1.6133-9.2656 12.09-14.641 20.727-9.8203 26.758 14.93 30.082 50.035 29.547 69.52-0.23438 8.5-7.8789 14.863-16.277 13.535l-22.32-3.5273c-6.8438-1.082-11.887-6.9805-11.887-13.914v-38.578l-7.9766-7.9766-8.0273 8.0273zm0-10.359v3.2891l6.2617-6.2617c0.97656-0.97656 2.5586-0.97656 3.5352 0l6.2109 6.2109v-3.2891l-6.0781-6.0781c-0.46875-0.46875-0.73047-1.1055-0.73047-1.7656v-21.195c0-0.64453-0.51953-1.1641-1.1641-1.1641s-1.1641 0.51953-1.1641 1.1641v21.195c0 0.66406-0.26172 1.2969-0.73047 1.7656l-6.1328 6.1289zm-18.504-12.363c-12.32 6.875-19.129 18.465-22.848 30.539-3.8125 12.371-4.3906 25.285-4.1367 34.48 0.15234 5.4844 5.082 9.5898 10.504 8.7344l22.32-3.5273c4.418-0.69922 7.668-4.5039 7.668-8.9766v-53.309c0-6.9336-7.4531-11.32-13.508-7.9414zm53.016 0c-6.0547-3.3789-13.508 1.0078-13.508 7.9414v53.309c0 4.4727 3.2539 8.2773 7.668 8.9766l22.32 3.5273c5.4219 0.85547 10.352-3.25 10.504-8.7344 0.25391-9.1953-0.32422-22.105-4.1367-34.48-3.7188-12.074-10.527-23.664-22.848-30.539z" fill-rule="evenodd"/>
</svg>
